<svg xmlns="http://www.w3.org/2000/svg" xmlns:xlink="http://www.w3.org/1999/xlink" width="500" zoomAndPan="magnify" viewBox="0 0 375 374.999991" height="500" preserveAspectRatio="xMidYMid meet" version="1.0"><path fill="#00bf63" d="M 146.484375 46.875 C 145.523438 46.875 144.566406 46.921875 143.613281 47.015625 C 142.65625 47.109375 141.710938 47.25 140.769531 47.4375 C 139.828125 47.625 138.898438 47.859375 137.980469 48.136719 C 137.0625 48.414062 136.160156 48.738281 135.273438 49.105469 C 134.386719 49.472656 133.519531 49.882812 132.675781 50.335938 C 131.828125 50.785156 131.003906 51.28125 130.207031 51.8125 C 129.410156 52.34375 128.640625 52.917969 127.898438 53.523438 C 127.15625 54.132812 126.445312 54.777344 125.769531 55.457031 C 125.089844 56.132812 124.445312 56.84375 123.835938 57.585938 C 123.230469 58.328125 122.65625 59.097656 122.125 59.894531 C 121.59375 60.691406 121.097656 61.515625 120.648438 62.363281 C 120.195312 63.207031 119.785156 64.074219 119.417969 64.960938 C 119.050781 65.847656 118.726562 66.75 118.449219 67.667969 C 118.171875 68.585938 117.9375 69.515625 117.75 70.457031 C 117.5625 71.398438 117.421875 72.34375 117.328125 73.300781 C 117.234375 74.253906 117.1875 75.210938 117.1875 76.171875 C 117.1875 77.132812 117.234375 78.089844 117.328125 79.042969 C 117.421875 80 117.5625 80.945312 117.75 81.886719 C 117.9375 82.828125 118.171875 83.757812 118.449219 84.675781 C 118.726562 85.59375 119.050781 86.496094 119.417969 87.382812 C 119.785156 88.269531 120.195312 89.136719 120.648438 89.980469 C 121.097656 90.828125 121.59375 91.652344 122.125 92.449219 C 122.65625 93.246094 123.230469 94.015625 123.835938 94.757812 C 124.445312 95.5 125.089844 96.210938 125.769531 96.886719 C 126.445312 97.566406 127.15625 98.210938 127.898438 98.820312 C 128.640625 99.425781 129.410156 100 130.207031 100.53125 C 131.003906 101.0625 131.828125 101.558594 132.675781 102.007812 C 133.519531 102.460938 134.386719 102.871094 135.273438 103.238281 C 136.160156 103.605469 137.0625 103.929688 137.980469 104.207031 C 138.898438 104.484375 139.828125 104.71875 140.769531 104.90625 C 141.710938 105.09375 142.65625 105.234375 143.613281 105.328125 C 144.566406 105.421875 145.523438 105.46875 146.484375 105.46875 L 175.78125 105.46875 L 175.78125 175.78125 L 52.734375 175.78125 C 51.773438 175.78125 50.816406 175.734375 49.863281 175.640625 C 48.90625 175.546875 47.960938 175.40625 47.019531 175.21875 C 46.078125 175.03125 45.148438 174.796875 44.230469 174.519531 C 43.3125 174.242188 42.410156 173.917969 41.523438 173.550781 C 40.636719 173.183594 39.769531 172.773438 38.925781 172.320312 C 38.078125 171.871094 37.253906 171.375 36.457031 170.84375 C 35.660156 170.3125 34.890625 169.738281 34.148438 169.132812 C 33.40625 168.523438 32.695312 167.878906 32.019531 167.199219 C 31.339844 166.523438 30.695312 165.8125 30.085938 165.070312 C 29.480469 164.328125 28.90625 163.558594 28.375 162.761719 C 27.84375 161.964844 27.347656 161.140625 26.898438 160.292969 C 26.445312 159.449219 26.035156 158.582031 25.667969 157.695312 C 25.300781 156.808594 24.976562 155.90625 24.699219 154.988281 C 24.421875 154.070312 24.1875 153.140625 24 152.199219 C 23.8125 151.257812 23.671875 150.3125 23.578125 149.355469 C 23.484375 148.402344 23.4375 147.445312 23.4375 146.484375 L 23.4375 134.765625 C 23.4375 118.578125 36.5625 105.46875 52.734375 105.46875 L 102.625 105.46875 C 101.6875 104.074219 100.816406 102.636719 100.015625 101.160156 C 99.214844 99.683594 98.484375 98.171875 97.828125 96.621094 C 97.171875 95.074219 96.589844 93.5 96.082031 91.898438 C 95.578125 90.292969 95.148438 88.671875 94.796875 87.027344 C 94.445312 85.382812 94.175781 83.726562 93.984375 82.054688 C 93.789062 80.386719 93.679688 78.710938 93.644531 77.03125 C 93.613281 75.347656 93.664062 73.671875 93.789062 71.996094 C 93.917969 70.320312 94.125 68.652344 94.414062 66.996094 C 94.703125 65.339844 95.066406 63.703125 95.511719 62.082031 C 95.957031 60.460938 96.476562 58.863281 97.074219 57.292969 C 97.671875 55.71875 98.34375 54.179688 99.085938 52.671875 C 99.832031 51.164062 100.644531 49.699219 101.53125 48.269531 C 102.414062 46.839844 103.367188 45.453125 104.382812 44.117188 C 105.398438 42.777344 106.476562 41.492188 107.617188 40.253906 C 108.757812 39.019531 109.953125 37.84375 111.207031 36.722656 C 112.460938 35.601562 113.761719 34.542969 115.117188 33.546875 C 116.472656 32.550781 117.871094 31.621094 119.3125 30.757812 C 120.753906 29.894531 122.234375 29.101562 123.753906 28.382812 C 125.273438 27.660156 126.824219 27.015625 128.402344 26.441406 C 129.984375 25.867188 131.585938 25.371094 133.214844 24.953125 C 134.84375 24.535156 136.488281 24.191406 138.148438 23.929688 C 139.808594 23.667969 141.476562 23.488281 143.15625 23.382812 C 144.832031 23.28125 146.511719 23.257812 148.191406 23.316406 C 149.871094 23.375 151.546875 23.511719 153.210938 23.730469 C 154.878906 23.949219 156.53125 24.246094 158.167969 24.621094 C 159.808594 25 161.425781 25.453125 163.019531 25.984375 C 164.613281 26.515625 166.179688 27.121094 167.71875 27.800781 C 169.253906 28.480469 170.757812 29.234375 172.222656 30.058594 C 173.6875 30.878906 175.109375 31.773438 176.488281 32.734375 C 177.867188 33.691406 179.199219 34.714844 180.480469 35.804688 C 181.765625 36.890625 182.992188 38.039062 184.164062 39.242188 C 185.335938 40.445312 186.449219 41.703125 187.5 43.015625 C 188.550781 41.703125 189.664062 40.445312 190.835938 39.242188 C 192.007812 38.039062 193.234375 36.890625 194.519531 35.804688 C 195.800781 34.714844 197.132812 33.691406 198.511719 32.734375 C 199.890625 31.773438 201.3125 30.878906 202.777344 30.058594 C 204.242188 29.234375 205.746094 28.480469 207.28125 27.800781 C 208.820312 27.121094 210.386719 26.515625 211.980469 25.984375 C 213.574219 25.453125 215.191406 25 216.832031 24.625 C 218.46875 24.246094 220.121094 23.949219 221.789062 23.730469 C 223.453125 23.515625 225.128906 23.375 226.808594 23.316406 C 228.488281 23.257812 230.167969 23.28125 231.84375 23.382812 C 233.523438 23.488281 235.191406 23.667969 236.851562 23.929688 C 238.511719 24.195312 240.15625 24.535156 241.785156 24.953125 C 243.414062 25.375 245.015625 25.871094 246.597656 26.441406 C 248.175781 27.015625 249.726562 27.660156 251.246094 28.382812 C 252.765625 29.101562 254.246094 29.894531 255.6875 30.757812 C 257.128906 31.621094 258.527344 32.550781 259.882812 33.546875 C 261.238281 34.542969 262.539062 35.601562 263.792969 36.722656 C 265.046875 37.84375 266.242188 39.019531 267.382812 40.257812 C 268.523438 41.492188 269.601562 42.777344 270.617188 44.117188 C 271.632812 45.457031 272.585938 46.839844 273.46875 48.269531 C 274.355469 49.699219 275.167969 51.167969 275.914062 52.671875 C 276.65625 54.179688 277.328125 55.71875 277.925781 57.292969 C 278.523438 58.863281 279.042969 60.460938 279.488281 62.082031 C 279.933594 63.703125 280.296875 65.339844 280.585938 66.996094 C 280.871094 68.652344 281.082031 70.320312 281.210938 71.996094 C 281.335938 73.671875 281.386719 75.347656 281.355469 77.03125 C 281.320312 78.710938 281.210938 80.386719 281.015625 82.054688 C 280.824219 83.726562 280.550781 85.382812 280.203125 87.027344 C 279.851562 88.671875 279.421875 90.292969 278.917969 91.898438 C 278.410156 93.5 277.828125 95.074219 277.171875 96.621094 C 276.515625 98.171875 275.785156 99.683594 274.984375 101.160156 C 274.183594 102.636719 273.3125 104.074219 272.375 105.46875 L 333.984375 105.46875 C 350.15625 105.46875 363.28125 118.59375 363.28125 134.765625 L 363.28125 146.484375 C 363.28125 162.671875 350.15625 175.78125 333.984375 175.78125 L 199.21875 175.78125 L 199.21875 105.46875 L 228.515625 105.46875 C 229.476562 105.46875 230.433594 105.421875 231.386719 105.328125 C 232.34375 105.234375 233.289062 105.09375 234.230469 104.90625 C 235.171875 104.71875 236.101562 104.484375 237.019531 104.207031 C 237.9375 103.929688 238.839844 103.605469 239.726562 103.238281 C 240.613281 102.871094 241.480469 102.460938 242.324219 102.007812 C 243.171875 101.558594 243.996094 101.0625 244.792969 100.53125 C 245.589844 100 246.359375 99.425781 247.101562 98.820312 C 247.84375 98.210938 248.554688 97.566406 249.230469 96.886719 C 249.910156 96.210938 250.554688 95.5 251.164062 94.757812 C 251.769531 94.015625 252.34375 93.246094 252.875 92.449219 C 253.40625 91.652344 253.902344 90.828125 254.351562 89.980469 C 254.804688 89.136719 255.214844 88.269531 255.582031 87.382812 C 255.949219 86.496094 256.273438 85.59375 256.550781 84.675781 C 256.828125 83.757812 257.0625 82.828125 257.25 81.886719 C 257.4375 80.945312 257.578125 80 257.671875 79.042969 C 257.765625 78.089844 257.8125 77.132812 257.8125 76.171875 C 257.8125 75.210938 257.765625 74.253906 257.671875 73.300781 C 257.578125 72.34375 257.4375 71.398438 257.25 70.457031 C 257.0625 69.515625 256.828125 68.585938 256.550781 67.667969 C 256.273438 66.75 255.949219 65.847656 255.582031 64.960938 C 255.214844 64.074219 254.804688 63.207031 254.351562 62.363281 C 253.902344 61.515625 253.40625 60.691406 252.875 59.894531 C 252.34375 59.097656 251.769531 58.328125 251.164062 57.585938 C 250.554688 56.84375 249.910156 56.132812 249.230469 55.457031 C 248.554688 54.777344 247.84375 54.132812 247.101562 53.523438 C 246.359375 52.917969 245.589844 52.34375 244.792969 51.8125 C 243.996094 51.28125 243.171875 50.785156 242.324219 50.335938 C 241.480469 49.882812 240.613281 49.472656 239.726562 49.105469 C 238.839844 48.738281 237.9375 48.414062 237.019531 48.136719 C 236.101562 47.859375 235.171875 47.625 234.230469 47.4375 C 233.289062 47.25 232.34375 47.109375 231.386719 47.015625 C 230.433594 46.921875 229.476562 46.875 228.515625 46.875 C 227.554688 46.875 226.597656 46.921875 225.644531 47.015625 C 224.6875 47.109375 223.742188 47.25 222.800781 47.4375 C 221.859375 47.625 220.929688 47.859375 220.011719 48.136719 C 219.09375 48.414062 218.191406 48.738281 217.304688 49.105469 C 216.417969 49.472656 215.550781 49.882812 214.707031 50.335938 C 213.859375 50.785156 213.035156 51.28125 212.238281 51.8125 C 211.441406 52.34375 210.671875 52.917969 209.929688 53.523438 C 209.1875 54.132812 208.476562 54.777344 207.800781 55.457031 C 207.121094 56.132812 206.476562 56.84375 205.867188 57.585938 C 205.261719 58.328125 204.6875 59.097656 204.15625 59.894531 C 203.625 60.691406 203.128906 61.515625 202.679688 62.363281 C 202.226562 63.207031 201.816406 64.074219 201.449219 64.960938 C 201.082031 65.847656 200.757812 66.75 200.480469 67.667969 C 200.203125 68.585938 199.96875 69.515625 199.78125 70.457031 C 199.59375 71.398438 199.453125 72.34375 199.359375 73.300781 C 199.265625 74.253906 199.21875 75.210938 199.21875 76.171875 L 199.21875 105.46875 L 175.78125 105.46875 L 175.78125 76.171875 C 175.78125 59.984375 162.65625 46.875 146.484375 46.875 Z M 175.78125 199.21875 L 46.875 199.21875 L 46.875 304.6875 C 46.875 305.839844 46.929688 306.988281 47.042969 308.132812 C 47.15625 309.28125 47.324219 310.417969 47.550781 311.546875 C 47.773438 312.675781 48.054688 313.789062 48.390625 314.894531 C 48.722656 315.996094 49.109375 317.078125 49.550781 318.140625 C 49.992188 319.203125 50.484375 320.246094 51.027344 321.261719 C 51.570312 322.277344 52.160156 323.261719 52.800781 324.21875 C 53.441406 325.175781 54.125 326.101562 54.855469 326.992188 C 55.585938 327.878906 56.359375 328.734375 57.171875 329.546875 C 57.984375 330.359375 58.839844 331.132812 59.726562 331.863281 C 60.617188 332.59375 61.542969 333.277344 62.5 333.917969 C 63.457031 334.558594 64.441406 335.148438 65.457031 335.691406 C 66.472656 336.234375 67.515625 336.726562 68.578125 337.167969 C 69.640625 337.609375 70.722656 337.996094 71.824219 338.328125 C 72.929688 338.664062 74.042969 338.945312 75.171875 339.167969 C 76.300781 339.394531 77.441406 339.5625 78.585938 339.675781 C 79.730469 339.789062 80.878906 339.84375 82.03125 339.84375 L 175.78125 339.84375 Z M 199.21875 199.21875 L 199.21875 339.84375 L 304.6875 339.84375 C 305.839844 339.84375 306.988281 339.789062 308.132812 339.675781 C 309.28125 339.5625 310.417969 339.394531 311.546875 339.167969 C 312.675781 338.945312 313.789062 338.664062 314.894531 338.328125 C 315.996094 337.996094 317.078125 337.609375 318.140625 337.167969 C 319.203125 336.726562 320.246094 336.234375 321.261719 335.691406 C 322.277344 335.148438 323.261719 334.558594 324.21875 333.917969 C 325.175781 333.277344 326.101562 332.59375 326.992188 331.863281 C 327.878906 331.132812 328.734375 330.359375 329.546875 329.546875 C 330.359375 328.734375 331.132812 327.878906 331.863281 326.992188 C 332.59375 326.101562 333.277344 325.175781 333.917969 324.21875 C 334.558594 323.261719 335.148438 322.277344 335.691406 321.261719 C 336.234375 320.246094 336.726562 319.203125 337.167969 318.140625 C 337.609375 317.078125 337.996094 315.996094 338.328125 314.894531 C 338.664062 313.789062 338.945312 312.675781 339.167969 311.546875 C 339.394531 310.417969 339.5625 309.28125 339.675781 308.132812 C 339.789062 306.988281 339.84375 305.839844 339.84375 304.6875 L 339.84375 199.21875 Z M 199.21875 199.21875 " fill-opacity="1" fill-rule="nonzero"/></svg>